HIERARCHY
ROOT Hips
{
  OFFSET -312.782 72.9727 680.721
  CHANNELS 6 Xposition Yposition Zposition Zrotation Xrotation Yrotation
  JOINT Spine
  {
    OFFSET 0 8 2.15677e-05
    CHANNELS 6 Xposition Yposition Zposition Zrotation Xrotation Yrotation
    JOINT Spine1
    {
      OFFSET 0 8 -2.68124e-05
      CHANNELS 6 Xposition Yposition Zposition Zrotation Xrotation Yrotation
      JOINT Spine2
      {
        OFFSET 0 8 0
        CHANNELS 6 Xposition Yposition Zposition Zrotation Xrotation Yrotation
        JOINT Spine3
        {
          OFFSET 0 8 0
          CHANNELS 6 Xposition Yposition Zposition Zrotation Xrotation Yrotation
          JOINT Neck
          {
            OFFSET 0.000301755 17 7.89517e-05
            CHANNELS 6 Xposition Yposition Zposition Zrotation Xrotation Yrotation
            JOINT Head
            {
              OFFSET 6.25726e-05 10.8 2.98562e-05
              CHANNELS 6 Xposition Yposition Zposition Zrotation Xrotation Yrotation
              End Site
              {
                OFFSET 0 20.25 0
              }
            }
          }
          JOINT LeftShoulder
          {
            OFFSET 5.00034 16.9999 0.000159958
            CHANNELS 6 Xposition Yposition Zposition Zrotation Xrotation Yrotation
            JOINT LeftShoulder2
            {
              OFFSET 6.45 0 0
              CHANNELS 6 Xposition Yposition Zposition Zrotation Xrotation Yrotation
              JOINT LeftArm
              {
                OFFSET 6.44997 9.71929e-05 -0.00128965
                CHANNELS 6 Xposition Yposition Zposition Zrotation Xrotation Yrotation
                JOINT LeftForeArm
                {
                  OFFSET -1.26043e-05 -32.4 -1.99521
                  CHANNELS 6 Xposition Yposition Zposition Zrotation Xrotation Yrotation
                  JOINT LeftHand
                  {
                    OFFSET -1.52018e-05 -25.65 2
                    CHANNELS 6 Xposition Yposition Zposition Zrotation Xrotation Yrotation
                    JOINT LeftHandThumb1
                    {
                      OFFSET -0.499967 -1.50001 2.64998
                      CHANNELS 6 Xposition Yposition Zposition Zrotation Xrotation Yrotation
                      JOINT LeftHandThumb2
                      {
                        OFFSET -1.42153e-05 -3.8 3.70004
                        CHANNELS 6 Xposition Yposition Zposition Zrotation Xrotation Yrotation
                        JOINT LeftHandThumb3
                        {
                          OFFSET 0 -2.99997 2.69995
                          CHANNELS 6 Xposition Yposition Zposition Zrotation Xrotation Yrotation
                          End Site
                          {
                            OFFSET 1.60883e-05 -2.30006 1.80002
                          }
                        }
                      }
                    }
                    JOINT LeftHandIndex
                    {
                      OFFSET 5.23021e-05 -1.90009 1.59999
                      CHANNELS 6 Xposition Yposition Zposition Zrotation Xrotation Yrotation
                      JOINT LeftHandIndex1
                      {
                        OFFSET -1.10837e-05 -8.29999 1.9
                        CHANNELS 6 Xposition Yposition Zposition Zrotation Xrotation Yrotation
                        JOINT LeftHandIndex2
                        {
                          OFFSET -2.69795e-05 -4.49991 -1.2836e-05
                          CHANNELS 6 Xposition Yposition Zposition Zrotation Xrotation Yrotation
                          JOINT LeftHandIndex3
                          {
                            OFFSET 0 -3.4283 0
                            CHANNELS 6 Xposition Yposition Zposition Zrotation Xrotation Yrotation
                            End Site
                            {
                              OFFSET -1.90785e-05 -2.59991 0
                            }
                          }
                        }
                      }
                    }
                    JOINT LeftHandMiddle
                    {
                      OFFSET -0.249982 -2.20005 0.399991
                      CHANNELS 6 Xposition Yposition Zposition Zrotation Xrotation Yrotation
                      JOINT LeftHandMiddle1
                      {
                        OFFSET -1.20444e-05 -8.29991 0.999978
                        CHANNELS 6 Xposition Yposition Zposition Zrotation Xrotation Yrotation
                        JOINT LeftHandMiddle2
                        {
                          OFFSET 0 -4.65001 2.59492e-05
                          CHANNELS 6 Xposition Yposition Zposition Zrotation Xrotation Yrotation
                          JOINT LeftHandMiddle3
                          {
                            OFFSET -1.38946e-05 -3.30003 -2.05144e-05
                            CHANNELS 6 Xposition Yposition Zposition Zrotation Xrotation Yrotation
                            End Site
                            {
                              OFFSET -6.7242e-05 -2.7 1.11671e-05
                            }
                          }
                        }
                      }
                    }
                    JOINT LeftHandRing
                    {
                      OFFSET -0.499999 -2.15003 -0.800023
                      CHANNELS 6 Xposition Yposition Zposition Zrotation Xrotation Yrotation
                      JOINT LeftHandRing1
                      {
                        OFFSET 1.04148e-05 -7.75005 -0.199994
                        CHANNELS 6 Xposition Yposition Zposition Zrotation Xrotation Yrotation
                        JOINT LeftHandRing2
                        {
                          OFFSET -1.57042e-05 -3.86405 -1.63023e-05
                          CHANNELS 6 Xposition Yposition Zposition Zrotation Xrotation Yrotation
                          JOINT LeftHandRing3
                          {
                            OFFSET 1.8104e-05 -3.4 2.40106e-05
                            CHANNELS 6 Xposition Yposition Zposition Zrotation Xrotation Yrotation
                            End Site
                            {
                              OFFSET -7.24257e-05 -2.60006 -2.08407e-05
                            }
                          }
                        }
                      }
                    }
                    JOINT LeftHandPinky
                    {
                      OFFSET -0.749996 -1.75005 -1.85001
                      CHANNELS 6 Xposition Yposition Zposition Zrotation Xrotation Yrotation
                      JOINT LeftHandPinky1
                      {
                        OFFSET -1.04947e-05 -7.14999 -1.00002
                        CHANNELS 6 Xposition Yposition Zposition Zrotation Xrotation Yrotation
                        JOINT LeftHandPinky2
                        {
                          OFFSET -2.41076e-05 -3.00972 0
                          CHANNELS 6 Xposition Yposition Zposition Zrotation Xrotation Yrotation
                          JOINT LeftHandPinky3
                          {
                            OFFSET 2.95702e-05 -2.35 0
                            CHANNELS 6 Xposition Yposition Zposition Zrotation Xrotation Yrotation
                            End Site
                            {
                              OFFSET 0 -2.1 -1.12122e-05
                            }
                          }
                        }
                      }
                    }
                  }
                }
              }
            }
          }
          JOINT RightShoulder
          {
            OFFSET -4.99968 17.0001 1.85829e-05
            CHANNELS 6 Xposition Yposition Zposition Zrotation Xrotation Yrotation
            JOINT RightShoulder2
            {
              OFFSET -6.45 0 0
              CHANNELS 6 Xposition Yposition Zposition Zrotation Xrotation Yrotation
              JOINT RightArm
              {
                OFFSET -6.45 9.36366e-05 -0.00115906
                CHANNELS 6 Xposition Yposition Zposition Zrotation Xrotation Yrotation
                JOINT RightForeArm
                {
                  OFFSET -8.75095e-05 -32.4 -2.00002
                  CHANNELS 6 Xposition Yposition Zposition Zrotation Xrotation Yrotation
                  JOINT RightHand
                  {
                    OFFSET 9.29759e-05 -25.65 2.00005
                    CHANNELS 6 Xposition Yposition Zposition Zrotation Xrotation Yrotation
                    JOINT RightHandThumb1
                    {
                      OFFSET 0.499985 -1.5 2.65
                      CHANNELS 6 Xposition Yposition Zposition Zrotation Xrotation Yrotation
                      JOINT RightHandThumb2
                      {
                        OFFSET -2.85076e-05 -3.80005 3.70001
                        CHANNELS 6 Xposition Yposition Zposition Zrotation Xrotation Yrotation
                        JOINT RightHandThumb3
                        {
                          OFFSET 0 -3 2.7
                          CHANNELS 6 Xposition Yposition Zposition Zrotation Xrotation Yrotation
                          End Site
                          {
                            OFFSET -5.34512e-05 -2.29999 1.79998
                          }
                        }
                      }
                    }
                    JOINT RightHandIndex
                    {
                      OFFSET 4.10263e-05 -1.89993 1.59996
                      CHANNELS 6 Xposition Yposition Zposition Zrotation Xrotation Yrotation
                      JOINT RightHandIndex1
                      {
                        OFFSET -3.73898e-05 -8.30005 1.89997
                        CHANNELS 6 Xposition Yposition Zposition Zrotation Xrotation Yrotation
                        JOINT RightHandIndex2
                        {
                          OFFSET -2.98249e-05 -4.49997 2.54084e-05
                          CHANNELS 6 Xposition Yposition Zposition Zrotation Xrotation Yrotation
                          JOINT RightHandIndex3
                          {
                            OFFSET 3.39205e-05 -3.40001 3.15151e-05
                            CHANNELS 6 Xposition Yposition Zposition Zrotation Xrotation Yrotation
                            End Site
                            {
                              OFFSET 0 -2.59999 0
                            }
                          }
                        }
                      }
                    }
                    JOINT RightHandMiddle
                    {
                      OFFSET 0.249986 -2.2 0.400004
                      CHANNELS 6 Xposition Yposition Zposition Zrotation Xrotation Yrotation
                      JOINT RightHandMiddle1
                      {
                        OFFSET 1.9285e-05 -8.29996 1.00002
                        CHANNELS 6 Xposition Yposition Zposition Zrotation Xrotation Yrotation
                        JOINT RightHandMiddle2
                        {
                          OFFSET -1.41411e-05 -4.64996 -6.59209e-05
                          CHANNELS 6 Xposition Yposition Zposition Zrotation Xrotation Yrotation
                          JOINT RightHandMiddle3
                          {
                            OFFSET 3.54617e-05 -3.30001 0
                            CHANNELS 6 Xposition Yposition Zposition Zrotation Xrotation Yrotation
                            End Site
                            {
                              OFFSET -5.84421e-05 -2.69994 7.55019e-05
                            }
                          }
                        }
                      }
                    }
                    JOINT RightHandRing
                    {
                      OFFSET 0.499998 -2.15002 -0.800022
                      CHANNELS 6 Xposition Yposition Zposition Zrotation Xrotation Yrotation
                      JOINT RightHandRing1
                      {
                        OFFSET 1.33707e-05 -7.75 -0.200037
                        CHANNELS 6 Xposition Yposition Zposition Zrotation Xrotation Yrotation
                        JOINT RightHandRing2
                        {
                          OFFSET 1.92916e-05 -3.79999 -1.86407e-05
                          CHANNELS 6 Xposition Yposition Zposition Zrotation Xrotation Yrotation
                          JOINT RightHandRing3
                          {
                            OFFSET -4.12944e-05 -3.39998 4.317e-05
                            CHANNELS 6 Xposition Yposition Zposition Zrotation Xrotation Yrotation
                            End Site
                            {
                              OFFSET -3.15033e-05 -2.59999 0
                            }
                          }
                        }
                      }
                    }
                    JOINT RightHandPinky
                    {
                      OFFSET 0.750018 -1.74993 -1.84998
                      CHANNELS 6 Xposition Yposition Zposition Zrotation Xrotation Yrotation
                      JOINT RightHandPinky1
                      {
                        OFFSET -2.51784e-05 -7.15001 -1.00002
                        CHANNELS 6 Xposition Yposition Zposition Zrotation Xrotation Yrotation
                        JOINT RightHandPinky2
                        {
                          OFFSET 0 -3.00001 3.79536e-05
                          CHANNELS 6 Xposition Yposition Zposition Zrotation Xrotation Yrotation
                          JOINT RightHandPinky3
                          {
                            OFFSET -2.10167e-05 -2.35 -2.74819e-05
                            CHANNELS 6 Xposition Yposition Zposition Zrotation Xrotation Yrotation
                            End Site
                            {
                              OFFSET 0 -2.09995 3.85515e-05
                            }
                          }
                        }
                      }
                    }
                  }
                }
              }
            }
          }
        }
      }
    }
  }
  JOINT LeftUpLeg
  {
    OFFSET 8 0 -2.28971e-05
    CHANNELS 6 Xposition Yposition Zposition Zrotation Xrotation Yrotation
    JOINT LeftLeg
    {
      OFFSET 0 -45.0001 -0.999986
      CHANNELS 6 Xposition Yposition Zposition Zrotation Xrotation Yrotation
      JOINT LeftFoot
      {
        OFFSET 0 -41 -2.00003
        CHANNELS 6 Xposition Yposition Zposition Zrotation Xrotation Yrotation
        JOINT LeftToeBase
        {
          OFFSET -2.189e-05 -7.5 12.5
          CHANNELS 6 Xposition Yposition Zposition Zrotation Xrotation Yrotation
          JOINT LeftFootToe
          {
            OFFSET 0 0 4
            CHANNELS 6 Xposition Yposition Zposition Zrotation Xrotation Yrotation
            End Site
            {
              OFFSET 0 0 0
            }
          }
        }
      }
    }
  }
  JOINT RightUpLeg
  {
    OFFSET -8 0 2.28971e-05
    CHANNELS 6 Xposition Yposition Zposition Zrotation Xrotation Yrotation
    JOINT RightLeg
    {
      OFFSET 0 -45 -1.00001
      CHANNELS 6 Xposition Yposition Zposition Zrotation Xrotation Yrotation
      JOINT RightFoot
      {
        OFFSET 0 -41 -2.00007
        CHANNELS 6 Xposition Yposition Zposition Zrotation Xrotation Yrotation
        JOINT RightToeBase
        {
          OFFSET 3.04452e-05 -7.50001 12.5
          CHANNELS 6 Xposition Yposition Zposition Zrotation Xrotation Yrotation
          JOINT RightFootToe
          {
            OFFSET 0 0 4
            CHANNELS 6 Xposition Yposition Zposition Zrotation Xrotation Yrotation
            End Site
            {
              OFFSET 0 0 0
            }
          }
        }
      }
    }
  }
}
MOTION
Frames:	2
Frame Time:	0.0111111
-314.562 72.7105 679.774 -6.54554 20.685 162.408 -1.54449e-05 8 3.39104e-06 5.54614 14.6359 -10.4276 3.05323e-06 8 -2.13291e-05 1.91742 6.17988 -1.05138 7.34485e-06 8 3.403e-05 0.94395 3.09706 -0.499385 5.68434e-14 8 0 0.942452 3.09179 -0.498775 -0.000172248 17 -0.00025595 -4.79624 1.87578 0.870234 3.49616e-05 10.8 1.10897e-05 -11.2859 4.21955 2.27374 4.9998 17 -0.000193509 -7.71425 -0.00905252 7.04115 6.45 0 0 -0.132405 -0.0310587 0.904391 6.45002 0.000119746 0.000350531 41.1657 14.1656 17.0459 -4.90135e-06 -32.4 -1.99695 -51.4552 -70.1488 -74.3391 -1.03261e-05 -25.65 2 20.3046 -47.5801 -23.3049 -0.499992 -1.49998 2.64999 -26.6141 -24.8142 -29.7429 -4.13717e-07 -3.79998 3.70004 -0.276239 33.6611 -0.0213073 3.5402e-07 -3.00004 2.69995 -0.029877 21.8101 0.00602151 1.35361e-05 -1.90009 1.59998 5.35004e-06 -6.08622e-06 -2.30273e-06 6.88047e-06 -8.29995 1.9 -6.14199 16.2541 1.02587 -2.07565e-06 -4.49996 -5.41051e-06 -25.0014 0.0103074 0.058944 -4.28726e-05 -3.4239 2.15166e-05 -19.0584 -0.00120428 0.078304 -0.249993 -2.2 0.4 5.35004e-06 -6.08622e-06 -2.30273e-06 -1.49941e-05 -8.29998 0.999993 -16.4988 5.13911 1.99388 -2.49051e-09 -4.64997 1.1277e-06 -39.3638 -0.0235439 0.045699 -2.56664e-05 -3.30004 1.15377e-05 -27.6999 -0.0370818 -0.0150443 -0.500014 -2.15006 -0.800018 5.35004e-06 -6.08622e-06 -2.30273e-06 -8.50461e-06 -7.75001 -0.199999 -50.6108 15.0247 10.9999 1.00437e-05 -3.84935 9.02652e-07 -17.3394 -0.0125373 0.0293701 -1.27827e-05 -3.40003 1.35011e-05 -13.1882 -0.0268256 0.0350439 -0.75002 -1.75003 -1.85001 5.35004e-06 -6.08622e-06 -2.30273e-06 -1.75934e-05 -7.15 -0.999996 -72.3396 12.2138 16.1876 1.19021e-05 -3.00609 8.6701e-07 -7.45296 -0.00665663 0.0310855 -1.80488e-05 -2.35002 5.30195e-06 8.70695e-05 -0.00315044 0.0508982 -5.0002 16.9999 -0.000337222 3.13164 0.859465 8.30306 -6.45 0 0 -0.422988 -0.346181 -0.570949 -6.44999 0.000195905 -0.000384437 -70.2998 -27.2543 -34.4932 -7.16054e-05 -32.4 -1.99994 -3.52914 -50.3055 -3.36239 5.84589e-05 -25.65 1.99999 15.6975 -6.55902 21.5005 0.499998 -1.50004 2.65002 -86.1735 -48.3333 -128.764 -5.89644e-05 -3.80006 3.70003 3.3435 20.9286 0.607962 -8.6633e-06 -3 2.69999 0.754796 62.9091 -1.07586 6.03382e-05 -1.89997 1.6 7.68778e-06 -2.51777e-06 -2.83288e-07 -6.11137e-05 -8.30001 1.89996 33.7603 3.6354 -2.30503 -3.22397e-05 -4.49998 4.85188e-05 14.9956 -0.0899767 0.175252 4.50079e-05 -3.39999 -1.6755e-05 12.5 0.0911403 0.174743 0.249969 -2.19998 0.400045 7.68778e-06 -2.51777e-06 -2.83288e-07 2.38203e-05 -8.29996 0.999989 47.1337 2.68344 -2.841 -1.20684e-05 -4.65003 -2.47509e-05 7.58603 -0.0642672 0.111855 3.49888e-05 -3.29996 -1.01941e-05 3.95896 -0.0603598 0.100103 0.499994 -2.15003 -0.799997 7.68778e-06 -2.51777e-06 -2.83288e-07 3.32831e-05 -7.75001 -0.200036 53.8079 -0.372128 -2.75167 4.06855e-06 -3.8 1.66202e-05 56.2501 0.107552 -0.15453 -2.5278e-05 -3.39995 -9.48401e-06 39.0366 0.0360319 -0.0702065 0.750031 -1.74996 -1.84996 7.68778e-06 -2.51777e-06 -2.83288e-07 -3.73632e-05 -7.15 -0.999996 60.1298 -4.5782 -1.97538 -5.09541e-06 -2.99998 2.36568e-05 44.5141 -0.232652 -0.0395709 -1.51668e-05 -2.35003 -1.12032e-05 30.8881 -0.138642 -0.106109 8.00001 7.23545e-08 -1.02509e-05 18.6739 -34.4031 22.5268 6.78584e-06 -45 -1.00005 -14.0721 68.5117 1.38537 4.7885e-06 -41 -2.00001 -0.882691 -5.42443 -20.5633 -1.91192e-05 -7.5 12.5 -1.88284e-07 -0.141036 -3.31297e-06 -5.68434e-14 1.42109e-14 4 8.12951 0.252754 62.6793 -8.00001 -7.23545e-08 1.02509e-05 -9.08486 -54.3464 -2.02122 8.32895e-06 -45 -1.00001 3.43767 65.1693 -12.8479 -5.4844e-06 -41 -2.00006 5.68306 9.05852 -6.70435 2.94971e-05 -7.5 12.5 -0.00018179 -6.00661e-06 1.77718e-05 0 -7.10543e-15 4 6.0445 7.71971 53.0606 
-314.555 72.7099 679.773 -6.55647 20.6532 162.412 -1.54449e-05 8 3.39104e-06 5.54035 14.6539 -10.4186 3.05323e-06 8 -2.13291e-05 1.90987 6.18193 -1.04861 7.34485e-06 8 3.403e-05 0.940224 3.09832 -0.497856 0 8 0 0.938615 3.09304 -0.496679 -0.000172248 17 -0.00025595 -4.81061 1.87512 0.880365 3.49616e-05 10.8 1.10897e-05 -11.3208 4.22172 2.29866 4.9998 17 -0.000193509 -7.71383 -0.015332 7.05681 6.45 -7.10543e-15 0 -0.130142 -0.0326456 0.889673 6.45002 0.000119746 0.000350531 41.1658 14.0654 17.1005 -4.90135e-06 -32.4 -1.99695 -51.2774 -70.1366 -74.1032 -1.03261e-05 -25.65 2 20.2974 -47.5943 -23.3216 -0.499992 -1.49998 2.64999 -26.5944 -24.9307 -29.6812 -4.13717e-07 -3.79998 3.70004 -0.277228 33.7707 -0.0197765 3.5402e-07 -3.00004 2.69995 -0.0297698 21.8214 0.00587416 1.35361e-05 -1.90009 1.59998 5.35004e-06 -6.08622e-06 -2.30273e-06 6.88047e-06 -8.29995 1.9 -6.13993 16.2569 1.02488 -2.07565e-06 -4.49996 -5.41051e-06 -25.0025 0.0103643 0.0572783 -4.28726e-05 -3.4239 2.15166e-05 -19.0591 -0.000874869 0.0779276 -0.249993 -2.2 0.4 5.35004e-06 -6.08622e-06 -2.30273e-06 -1.49941e-05 -8.29998 0.999993 -16.4827 5.16071 1.99346 -2.49052e-09 -4.64997 1.1277e-06 -39.4618 -0.0225391 0.0442516 -2.56664e-05 -3.30004 1.15377e-05 -27.7593 -0.0363521 -0.0146726 -0.500014 -2.15006 -0.800018 5.35004e-06 -6.08622e-06 -2.30273e-06 -8.50461e-06 -7.75001 -0.199999 -50.5727 15.0443 10.9967 1.00437e-05 -3.84935 9.02652e-07 -17.3929 -0.0124392 0.0292161 -1.27827e-05 -3.40003 1.35011e-05 -13.2251 -0.026649 0.0350264 -0.75002 -1.75003 -1.85001 5.35004e-06 -6.08622e-06 -2.30273e-06 -1.75934e-05 -7.15 -0.999996 -72.2408 12.2553 16.178 1.19021e-05 -3.00609 8.6701e-07 -7.45347 -0.00783832 0.0323532 -1.80488e-05 -2.35002 5.30195e-06 8.8566e-05 -0.00414817 0.0522236 -5.0002 16.9999 -0.000337222 3.1015 0.858221 8.32751 -6.45 7.10543e-15 -1.13687e-13 -0.422821 -0.343773 -0.570427 -6.44999 0.000195905 -0.000384437 -70.2401 -27.3547 -34.4668 -7.16054e-05 -32.4 -1.99994 -3.59692 -50.2412 -3.42336 5.84589e-05 -25.65 1.99999 15.6924 -6.49644 21.5392 0.499998 -1.50004 2.65002 -86.1337 -48.2435 -128.651 -5.89644e-05 -3.80006 3.70003 3.34614 20.8955 0.608025 -8.6633e-06 -3 2.69999 0.754667 62.9093 -1.07587 6.03382e-05 -1.89997 1.6 7.68778e-06 -2.51777e-06 -2.83288e-07 -6.11137e-05 -8.30001 1.89996 33.7338 3.67063 -2.3108 -3.22397e-05 -4.49998 4.85188e-05 15.0216 -0.0902478 0.175209 4.50079e-05 -3.39999 -1.6755e-05 12.5184 0.0914124 0.174788 0.249969 -2.19998 0.400045 7.68778e-06 -2.51777e-06 -2.83288e-07 2.38203e-05 -8.29996 0.999989 47.0864 2.70653 -2.84728 -1.20684e-05 -4.65003 -2.47509e-05 7.58112 -0.0652699 0.112197 3.49888e-05 -3.29996 -1.01941e-05 3.95457 -0.0610341 0.10047 0.499994 -2.15003 -0.799997 7.68778e-06 -2.51777e-06 -2.83288e-07 3.32831e-05 -7.75001 -0.200036 53.6842 -0.406044 -2.72275 4.06855e-06 -3.8 1.66202e-05 56.3243 0.106535 -0.154659 -2.5278e-05 -3.39995 -9.48401e-06 39.0939 0.0343118 -0.0706646 0.750031 -1.74996 -1.84996 7.68778e-06 -2.51777e-06 -2.83288e-07 -3.73632e-05 -7.15 -0.999996 60.0695 -4.55254 -1.98225 -5.09541e-06 -2.99998 2.36568e-05 44.5135 -0.232274 -0.0387814 -1.51668e-05 -2.35003 -1.12032e-05 30.8869 -0.138695 -0.106859 8.00001 7.23545e-08 -1.02509e-05 18.6992 -34.4283 22.5591 6.78584e-06 -45 -1.00005 -14.0694 68.5116 1.38267 4.7885e-06 -41 -2.00001 -0.875949 -5.40994 -20.5896 -1.91192e-05 -7.5 12.5 -1.90224e-07 -0.174595 -3.31298e-06 -5.68434e-14 0 4 8.1245 0.274183 62.6662 -8.00001 -7.23545e-08 1.02509e-05 -9.10285 -54.3601 -2.05583 8.32895e-06 -45 -1.00001 3.43859 65.1809 -12.8486 -5.4844e-06 -41 -2.00006 5.68428 9.05837 -6.7213 2.94971e-05 -7.5 12.5 -0.00018179 -6.00661e-06 1.77718e-05 2.84217e-14 0 4 6.01467 7.70536 53.0588 
